<svg id="グループ_2667" data-name="グループ 2667" xmlns="http://www.w3.org/2000/svg" width="38" height="38" viewBox="0 0 38 38">
  <path id="パス_200" data-name="パス 200" d="M19,0A19,19,0,1,1,0,19,19,19,0,0,1,19,0Z" fill="#fff"/>
  <path id="Icon_awesome-file-pdf" data-name="Icon awesome-file-pdf" d="M6.628,9.331a3.515,3.515,0,0,1-.073-1.709C6.861,7.622,6.832,8.967,6.628,9.331Zm-.062,1.72a16.812,16.812,0,0,1-1.035,2.284,13.417,13.417,0,0,1,2.292-.8A4.72,4.72,0,0,1,6.566,11.051ZM3.137,15.6c0,.029.481-.2,1.272-1.465A5.036,5.036,0,0,0,3.137,15.6Zm5.9-9.768h4.955V17.78a.872.872,0,0,1-.874.874H.874A.872.872,0,0,1,0,17.78V.874A.872.872,0,0,1,.874,0H8.161V4.955A.877.877,0,0,0,9.036,5.83Zm-.291,6.26a3.657,3.657,0,0,1-1.556-1.96A5.237,5.237,0,0,0,7.415,7.79a.913.913,0,0,0-1.742-.248,6.058,6.058,0,0,0,.3,2.805,34.214,34.214,0,0,1-1.487,3.126s0,0-.007,0c-.987.506-2.682,1.621-1.986,2.478a1.132,1.132,0,0,0,.783.364c.652,0,1.3-.656,2.226-2.252a20.768,20.768,0,0,1,2.878-.845,5.522,5.522,0,0,0,2.332.71.943.943,0,0,0,.718-1.581c-.506-.5-1.978-.353-2.682-.262Zm4.992-8.263L10.165.255A.874.874,0,0,0,9.546,0H9.327V4.664h4.664V4.441A.872.872,0,0,0,13.736,3.826Zm-2.7,9.3c.149-.1-.091-.434-1.559-.328C10.828,13.375,11.036,13.128,11.036,13.128Z" transform="translate(11.629 9.619)" fill="#1a3081"/>
</svg>
