<svg xmlns="http://www.w3.org/2000/svg" width="46.5" height="27.282" viewBox="0 0 80.12 47.008">
  <g id="Group_4291" data-name="Group 4291" transform="translate(-70.781 -4.106)">
    <g id="Group_4294" data-name="Group 4294">
      <path id="Path_1005" data-name="Path 1005" d="M206.752,28.683h2.981c4.054,0,6.846-2.539,6.846-6.429,0-3.916-2.653-6.455-6.568-6.455h-7.894V34.026h4.636Zm0-9.334h2.034c1.945,0,3.107,1.023,3.107,2.918s-1.162,2.93-3.133,2.93h-2.008Z" transform="translate(-131.335 -10.267)" fill="#fff"/>
      <path id="Path_1006" data-name="Path 1006" d="M257.326,34.83c0-4.509-2.741-7.2-7.035-7.2-4.27,0-7.035,2.7-7.035,7.2,0,4.585,2.7,7.212,7.035,7.212s7.035-2.615,7.035-7.212m-10.039.012a3.011,3.011,0,1,1,6.02,0,3.011,3.011,0,1,1-6.02,0" transform="translate(-158.067 -17.955)" fill="#fff"/>
      <rect id="Rectangle_666" data-name="Rectangle 666" width="4.484" height="18.226" transform="translate(100.641 5.533)" fill="#fff"/>
      <rect id="Rectangle_667" data-name="Rectangle 667" width="4.471" height="13.755" transform="translate(107.07 10.004)" fill="#fff"/>
      <path id="Path_1007" data-name="Path 1007" d="M307.975,16.057a2.166,2.166,0,1,0-2.2-2.16,2.186,2.186,0,0,0,2.2,2.16" transform="translate(-198.694 -7.619)" fill="#fff"/>
      <path id="Path_1008" data-name="Path 1008" d="M327.174,39.023c-1.3,0-2.071-.568-2.261-1.591h-4.345c.24,2.766,2.514,4.61,6.606,4.61,3.777,0,6.353-1.831,6.353-4.686,0-2.059-1.263-3.2-4.194-3.764l-2.425-.48c-1.314-.265-1.717-.644-1.717-1.238,0-.745.732-1.225,1.819-1.225a1.831,1.831,0,0,1,2.046,1.655h4.092c-.076-2.829-2.349-4.673-6.139-4.673-3.764,0-6.113,1.743-6.113,4.5,0,2.1,1.39,3.511,4.093,4.042l2.412.48c1.251.252,1.693.581,1.693,1.2,0,.72-.733,1.175-1.92,1.175" transform="translate(-208.305 -17.954)" fill="#fff"/>
      <path id="Path_1009" data-name="Path 1009" d="M364,26.271a2.319,2.319,0,0,1,2.349-2.615c1.478,0,2.248.96,2.248,2.513v7.857h4.472V25.2c0-3.246-1.705-5.191-4.775-5.191a4.292,4.292,0,0,0-4.307,2.854H363.9V15.8h-4.383V34.026H364Z" transform="translate(-233.613 -10.267)" fill="#fff"/>
      <path id="Path_1010" data-name="Path 1010" d="M209.518,79.123h-7.4V97.349h7.4c5.494,0,8.74-3.4,8.74-9.221s-3.233-9.006-8.74-9.006m-.607,14.488h-2.16V82.862h2.16c2.93,0,4.636,1.857,4.636,5.28,0,3.638-1.617,5.469-4.636,5.469" transform="translate(-131.335 -51.414)" fill="#fff"/>
      <path id="Path_1011" data-name="Path 1011" d="M257.274,90.954c-4.206,0-6.846,2.829-6.846,7.275s2.614,7.136,7,7.136c3.6,0,6.126-1.832,6.555-4.673h-4.042a2.416,2.416,0,0,1-2.451,1.5,2.616,2.616,0,0,1-2.715-2.778v-.278h9.283V97.876c0-4.206-2.639-6.922-6.783-6.922m-2.438,5.633a2.514,2.514,0,0,1,2.514-2.45,2.421,2.421,0,0,1,2.488,2.45Z" transform="translate(-162.728 -59.102)" fill="#fff"/>
      <path id="Path_1012" data-name="Path 1012" d="M299.927,96.916l-2.425-.48c-1.314-.265-1.718-.644-1.718-1.238,0-.745.733-1.225,1.819-1.225a1.831,1.831,0,0,1,2.046,1.655h4.093c-.076-2.83-2.349-4.673-6.139-4.673-3.764,0-6.113,1.743-6.113,4.5,0,2.1,1.39,3.511,4.092,4.042l2.413.48c1.251.252,1.692.581,1.692,1.2,0,.72-.732,1.175-1.919,1.175-1.3,0-2.072-.568-2.261-1.591h-4.345c.24,2.766,2.513,4.61,6.606,4.61,3.777,0,6.353-1.831,6.353-4.686,0-2.059-1.263-3.2-4.194-3.764" transform="translate(-189.197 -59.102)" fill="#fff"/>
      <path id="Path_1013" data-name="Path 1013" d="M331.25,77.221a2.2,2.2,0,1,0,2.2-2.173,2.183,2.183,0,0,0-2.2,2.173" transform="translate(-215.247 -48.766)" fill="#fff"/>
      <rect id="Rectangle_668" data-name="Rectangle 668" width="4.471" height="13.755" transform="translate(115.991 32.18)" fill="#fff"/>
      <path id="Path_1014" data-name="Path 1014" d="M357.1,93.954h-.088a4.3,4.3,0,0,0-4.143-2.639c-3.448,0-5.532,2.639-5.532,7.035,0,4.307,2.185,6.808,5.469,6.808a4.266,4.266,0,0,0,4.181-2.45h.088v2.526c0,1.364-.9,2.286-2.615,2.286a2.312,2.312,0,0,1-2.425-1.351h-4.332c.253,2.5,2.741,4.282,6.657,4.282,4.282,0,7.187-2.046,7.187-5.33v-13.6H357.1Zm-2.6,7.895c-1.617,0-2.577-1.238-2.577-3.461s.973-3.574,2.577-3.574,2.589,1.377,2.589,3.574c0,2.223-.985,3.461-2.589,3.461" transform="translate(-225.703 -59.337)" fill="#fff"/>
      <path id="Path_1015" data-name="Path 1015" d="M401.118,91.134a4.234,4.234,0,0,0-4.257,2.855h-.088V91.4h-4.358v13.755H396.9v-7.78a2.323,2.323,0,0,1,2.312-2.589c1.465,0,2.21.935,2.21,2.5v7.869h4.471V96.325c0-3.272-1.705-5.191-4.775-5.191" transform="translate(-254.992 -59.219)" fill="#fff"/>
    </g>
  </g>
</svg>
