<svg xmlns="http://www.w3.org/2000/svg" width="46.5" height="27.282" viewBox="0 0 46.5 27.282">
  <g id="Group_4943" data-name="Group 4943" transform="translate(-70.781 -4.106)">
    <g id="Group_4294" data-name="Group 4294" transform="translate(70.781 4.106)">
      <path id="Path_1005" data-name="Path 1005" d="M204.806,23.277h1.73a3.65,3.65,0,0,0,3.973-3.731A3.565,3.565,0,0,0,206.7,15.8h-4.582V26.378h2.69Zm0-5.417h1.18a1.591,1.591,0,0,1,1.8,1.693,1.6,1.6,0,0,1-1.818,1.7h-1.165Z" transform="translate(-202.116 -14.972)" fill="#212932"/>
      <path id="Path_1006" data-name="Path 1006" d="M251.421,31.809a4.084,4.084,0,1,0-8.166,0c0,2.661,1.569,4.186,4.083,4.186s4.083-1.517,4.083-4.186m-5.827.007a1.747,1.747,0,1,1,3.494,0,1.747,1.747,0,1,1-3.494,0" transform="translate(-234.894 -24.398)" fill="#212932"/>
      <rect id="Rectangle_666" data-name="Rectangle 666" width="2.602" height="10.578" transform="translate(17.33 0.828)" fill="#212932"/>
      <rect id="Rectangle_667" data-name="Rectangle 667" width="2.595" height="7.983" transform="translate(21.062 3.423)" fill="#212932"/>
      <path id="Path_1007" data-name="Path 1007" d="M307.053,14.239a1.257,1.257,0,1,0-1.276-1.253,1.269,1.269,0,0,0,1.276,1.253" transform="translate(-284.708 -11.725)" fill="#212932"/>
      <path id="Path_1008" data-name="Path 1008" d="M324.4,34.242c-.755,0-1.2-.33-1.312-.924h-2.522c.139,1.605,1.459,2.676,3.834,2.676,2.192,0,3.687-1.063,3.687-2.72,0-1.195-.733-1.855-2.434-2.185l-1.408-.278c-.762-.154-1-.374-1-.718,0-.433.425-.711,1.055-.711a1.063,1.063,0,0,1,1.188.96h2.375c-.044-1.642-1.364-2.712-3.563-2.712s-3.548,1.012-3.548,2.61c0,1.217.806,2.038,2.375,2.346l1.4.279c.726.147.982.337.982.7,0,.418-.425.682-1.114.682" transform="translate(-296.493 -24.397)" fill="#212932"/>
      <path id="Path_1009" data-name="Path 1009" d="M362.117,21.877a1.346,1.346,0,0,1,1.363-1.517c.858,0,1.3.557,1.3,1.459v4.56h2.6V21.254c0-1.884-.99-3.013-2.771-3.013a2.491,2.491,0,0,0-2.5,1.657h-.051V15.8h-2.544V26.378h2.6Z" transform="translate(-327.524 -14.972)" fill="#212932"/>
      <path id="Path_1010" data-name="Path 1010" d="M206.412,79.123h-4.3V89.7h4.3c3.189,0,5.073-1.972,5.073-5.352s-1.877-5.227-5.073-5.227m-.352,8.408h-1.253V81.293h1.253c1.7,0,2.69,1.078,2.69,3.064,0,2.111-.938,3.174-2.69,3.174" transform="translate(-202.116 -65.424)" fill="#212932"/>
      <path id="Path_1011" data-name="Path 1011" d="M254.4,90.954c-2.441,0-3.973,1.642-3.973,4.222a3.775,3.775,0,0,0,4.061,4.142c2.089,0,3.555-1.063,3.8-2.712h-2.346a1.4,1.4,0,0,1-1.422.872,1.518,1.518,0,0,1-1.576-1.613V95.7h5.388v-.733a3.72,3.72,0,0,0-3.936-4.017m-1.415,3.269a1.459,1.459,0,0,1,1.459-1.422,1.405,1.405,0,0,1,1.444,1.422Z" transform="translate(-240.609 -74.851)" fill="#212932"/>
      <path id="Path_1012" data-name="Path 1012" d="M296.249,94.414l-1.408-.279c-.762-.154-1-.374-1-.718,0-.432.425-.711,1.056-.711a1.063,1.063,0,0,1,1.187.96h2.375c-.044-1.642-1.364-2.712-3.563-2.712s-3.548,1.012-3.548,2.61c0,1.217.806,2.038,2.375,2.346l1.4.279c.726.146.982.337.982.7,0,.418-.425.682-1.114.682-.755,0-1.2-.33-1.312-.924h-2.522c.139,1.605,1.459,2.676,3.834,2.676,2.192,0,3.687-1.063,3.687-2.72,0-1.195-.733-1.855-2.434-2.185" transform="translate(-273.063 -74.851)" fill="#212932"/>
      <path id="Path_1013" data-name="Path 1013" d="M331.25,76.309a1.279,1.279,0,1,0,1.276-1.261,1.267,1.267,0,0,0-1.276,1.261" transform="translate(-305.004 -62.178)" fill="#212932"/>
      <rect id="Rectangle_668" data-name="Rectangle 668" width="2.595" height="7.983" transform="translate(26.239 16.294)" fill="#212932"/>
      <path id="Path_1014" data-name="Path 1014" d="M353.008,92.847h-.051a2.5,2.5,0,0,0-2.4-1.532c-2,0-3.211,1.532-3.211,4.083,0,2.5,1.268,3.951,3.174,3.951a2.476,2.476,0,0,0,2.427-1.422h.051v1.466c0,.792-.52,1.327-1.517,1.327a1.342,1.342,0,0,1-1.408-.784h-2.514c.147,1.451,1.591,2.485,3.863,2.485,2.485,0,4.171-1.188,4.171-3.094v-7.9h-2.58Zm-1.51,4.582c-.938,0-1.5-.718-1.5-2.009s.564-2.075,1.5-2.075,1.5.8,1.5,2.075-.572,2.009-1.5,2.009" transform="translate(-317.824 -75.138)" fill="#212932"/>
      <path id="Path_1015" data-name="Path 1015" d="M397.467,91.134A2.458,2.458,0,0,0,395,92.791h-.051v-1.5h-2.529v7.983h2.6V94.756a1.348,1.348,0,0,1,1.342-1.5c.85,0,1.283.542,1.283,1.451v4.567h2.6V94.147c0-1.9-.99-3.013-2.771-3.013" transform="translate(-353.738 -74.994)" fill="#212932"/>
    </g>
  </g>
</svg>
