<svg xmlns="http://www.w3.org/2000/svg" width="18.871" height="14.932" viewBox="0 0 18.871 14.932">
  <path id="Icon_metro-medium" data-name="Icon metro-medium" d="M21.442,17.052v2.2H14.681v-2.2h1.411V7.3h-.063L12.722,19.253H10.163L6.9,7.3H6.815v9.751H8.236v2.2H2.571v-2.2H3.3a.694.694,0,0,0,.453-.205.56.56,0,0,0,.232-.395V7.175a.641.641,0,0,0-.232-.421A.66.66,0,0,0,3.3,6.522H2.571v-2.2H9.647l2.327,8.646h.063l2.348-8.646h7.056v2.2h-.748a.647.647,0,0,0-.432.232.641.641,0,0,0-.232.421v9.278a.563.563,0,0,0,.226.395.666.666,0,0,0,.437.205Z" transform="translate(-2.571 -4.321)" fill="#fff"/>
</svg>
