<svg id="Icon_ionic-logo-instagram" data-name="Icon ionic-logo-instagram" xmlns="http://www.w3.org/2000/svg" width="17.045" height="17.045" viewBox="0 0 17.045 17.045">
  <path id="Path_1019" data-name="Path 1019" d="M16.573,5.92a3.561,3.561,0,0,1,3.551,3.551v7.1a3.561,3.561,0,0,1-3.551,3.551h-7.1A3.561,3.561,0,0,1,5.92,16.573v-7.1A3.561,3.561,0,0,1,9.471,5.92h7.1m0-1.42h-7.1A4.986,4.986,0,0,0,4.5,9.471v7.1a4.986,4.986,0,0,0,4.971,4.971h7.1a4.986,4.986,0,0,0,4.971-4.971v-7.1A4.986,4.986,0,0,0,16.573,4.5Z" transform="translate(-4.5 -4.5)" fill="#fff"/>
  <path id="Path_1020" data-name="Path 1020" d="M24.69,11.131a1.065,1.065,0,1,1,1.065-1.065A1.063,1.063,0,0,1,24.69,11.131Z" transform="translate(-11.552 -6.159)" fill="#fff"/>
  <path id="Path_1021" data-name="Path 1021" d="M15.511,12.67a2.841,2.841,0,1,1-2.841,2.841,2.843,2.843,0,0,1,2.841-2.841m0-1.42a4.261,4.261,0,1,0,4.261,4.261,4.262,4.262,0,0,0-4.261-4.261Z" transform="translate(-6.989 -6.989)" fill="#fff"/>
</svg>
