<svg xmlns="http://www.w3.org/2000/svg" width="17.045" height="17.045" viewBox="0 0 17.045 17.045">
  <path id="Icon_ionic-logo-facebook" data-name="Icon ionic-logo-facebook" d="M20.6,4.5H5.441a.941.941,0,0,0-.941.941V20.6a.941.941,0,0,0,.941.941h7.581V14.8H10.985V12.312h2.037V10.475a3.238,3.238,0,0,1,3.493-3.4c.941,0,1.953.071,2.188.1v2.3H17.137c-1.07,0-1.274.506-1.274,1.252v1.585h2.548L18.078,14.8H15.863v6.747H20.6a.941.941,0,0,0,.941-.941V5.441A.941.941,0,0,0,20.6,4.5Z" transform="translate(-4.5 -4.5)" fill="#fff"/>
</svg>
