<svg xmlns="http://www.w3.org/2000/svg" xmlns:xlink="http://www.w3.org/1999/xlink" width="106.678" height="103.607" viewBox="0 0 106.678 103.607">
  <defs>
    <clipPath id="clip-path">
      <rect width="106.678" height="103.607" fill="none"/>
    </clipPath>
  </defs>
  <g id="リピートグリッド_16" data-name="リピートグリッド 16" clip-path="url(#clip-path)">
    <g transform="translate(0 0)">
      <g id="グループ_3529" data-name="グループ 3529" transform="translate(0 0)" clip-path="url(#clip-path)">
        <path id="パス_637" data-name="パス 637" d="M11.549,36.727l1.195-2.65a8.942,8.942,0,0,0,5.017,1.586c2.085,0,2.931-.7,2.931-1.63,0-2.845-8.839-.89-8.839-6.537,0-2.584,2.086-4.733,6.407-4.733a10.2,10.2,0,0,1,5.279,1.346l-1.086,2.671a8.6,8.6,0,0,0-4.214-1.195c-2.085,0-2.888.782-2.888,1.738,0,2.8,8.838.869,8.838,6.449,0,2.542-2.106,4.714-6.45,4.714a10.84,10.84,0,0,1-6.189-1.759" transform="translate(2.807 5.533)"/>
        <path id="パス_638" data-name="パス 638" d="M27.84,25.839H22.976V22.972H36.223v2.866H31.358V38.175H27.84Z" transform="translate(5.584 5.584)"/>
        <path id="パス_639" data-name="パス 639" d="M35.712,31.486V22.972H39.23v8.383c0,2.889,1.26,4.083,3.389,4.083,2.149,0,3.387-1.195,3.387-4.083V22.972H49.48v8.514c0,4.474-2.562,6.95-6.884,6.95s-6.884-2.476-6.884-6.95" transform="translate(8.679 5.584)"/>
        <path id="パス_640" data-name="パス 640" d="M50.458,22.973h6.906c4.973,0,8.383,3,8.383,7.6s-3.41,7.6-8.383,7.6H50.458ZM57.19,35.287c3.019,0,5-1.8,5-4.714s-1.976-4.712-5-4.712H53.976v9.426Z" transform="translate(12.263 5.584)"/>
        <path id="パス_641" data-name="パス 641" d="M72.948,32.788v5.386H69.43v-5.43l-5.885-9.772h3.734l4.061,6.753L75.4,22.973h3.452Z" transform="translate(15.444 5.584)"/>
        <path id="パス_642" data-name="パス 642" d="M12.009,58.884H4.952L3.606,62.143H0l6.776-15.2h3.476l6.8,15.2H13.358ZM10.9,56.214l-2.41-5.821L6.081,56.214Z" transform="translate(0 11.409)"/>
        <path id="パス_643" data-name="パス 643" d="M29.807,58c0,2.628-2.086,4.148-6.082,4.148H15.864v-15.2h7.427c3.8,0,5.755,1.586,5.755,3.953a3.655,3.655,0,0,1-2.02,3.344A3.756,3.756,0,0,1,29.807,58M19.359,49.59v3.584h3.5c1.715,0,2.649-.608,2.649-1.8s-.934-1.781-2.649-1.781Zm6.908,8.036c0-1.282-.978-1.891-2.8-1.891H19.359v3.758h4.106c1.824,0,2.8-.564,2.8-1.867" transform="translate(3.856 11.409)"/>
        <path id="パス_644" data-name="パス 644" d="M39.789,62.143l-2.931-4.235H33.621v4.235H30.1v-15.2h6.581c4.061,0,6.6,2.107,6.6,5.517a4.943,4.943,0,0,1-3.129,4.8l3.41,4.886Zm-3.3-12.336H33.621v5.3h2.868c2.149,0,3.236-1,3.236-2.649,0-1.673-1.086-2.65-3.236-2.65" transform="translate(7.316 11.409)"/>
        <path id="パス_645" data-name="パス 645" d="M43.049,54.593c0-4.517,3.519-7.861,8.318-7.861,4.778,0,8.317,3.323,8.317,7.861s-3.539,7.862-8.317,7.862c-4.8,0-8.318-3.344-8.318-7.862m13.074,0a4.757,4.757,0,1,0-4.756,4.865,4.638,4.638,0,0,0,4.756-4.865" transform="translate(10.463 11.358)"/>
        <path id="パス_646" data-name="パス 646" d="M69.666,58.884H62.608l-1.346,3.259H57.656l6.777-15.2h3.474l6.8,15.2H71.014Zm-1.108-2.67-2.41-5.821-2.411,5.821Z" transform="translate(14.013 11.409)"/>
        <path id="パス_647" data-name="パス 647" d="M73.521,46.942h6.905c4.973,0,8.384,3,8.384,7.6s-3.411,7.6-8.384,7.6H73.521Zm6.732,12.314c3.019,0,4.995-1.8,4.995-4.714s-1.975-4.712-4.995-4.712H77.039v9.426Z" transform="translate(17.868 11.409)"/>
        <path id="パス_648" data-name="パス 648" d="M29.627,83.288v2.823H17.855V70.91H29.343v2.823H21.352v3.3H28.41v2.736H21.352v3.518Z" transform="translate(4.34 17.234)"/>
        <path id="パス_649" data-name="パス 649" d="M40.248,86.112l-3.671-5.277-3.606,5.277H28.932l5.625-7.732-5.343-7.469h4l3.5,4.929,3.431-4.929h3.8l-5.3,7.34,5.668,7.861Z" transform="translate(7.032 17.235)"/>
        <path id="パス_650" data-name="パス 650" d="M56.476,76.426c0,3.389-2.542,5.494-6.6,5.494H46.812v4.192H43.294v-15.2h6.581c4.06,0,6.6,2.106,6.6,5.515m-3.563,0c0-1.673-1.085-2.65-3.236-2.65H46.812v5.278h2.866c2.15,0,3.236-.978,3.236-2.628" transform="translate(10.522 17.235)"/>
        <path id="パス_651" data-name="パス 651" d="M56.188,78.561c0-4.517,3.519-7.861,8.318-7.861,4.778,0,8.317,3.323,8.317,7.861s-3.539,7.862-8.317,7.862c-4.8,0-8.318-3.344-8.318-7.862m13.074,0a4.757,4.757,0,1,0-4.756,4.865,4.638,4.638,0,0,0,4.756-4.865" transform="translate(13.656 17.183)"/>
        <path id="パス_652" data-name="パス 652" d="M36.909,1.388l5.338,8.657L40.6,11.057,33.045,8.463l3.241,5.257-1.979,1.219L28.969,6.283l1.657-1.022,7.545,2.6L34.93,2.607Z" transform="translate(7.041 0.338)"/>
        <path id="パス_653" data-name="パス 653" d="M43.633,1.973l-3.254-.055L40.411,0l8.863.15-.032,1.917-3.254-.055-.14,8.253-2.353-.04Z" transform="translate(9.814 0)"/>
        <path id="パス_654" data-name="パス 654" d="M49.964,6.3,52.99,1.475l1.994,1.25L52,7.478c-1.027,1.637-.737,2.762.47,3.518s2.344.528,3.37-1.109l2.981-4.751L60.8,6.37,57.768,11.2c-1.59,2.536-3.923,3.028-6.373,1.492S48.373,8.836,49.964,6.3" transform="translate(11.926 0.359)"/>
      </g>
    </g>
  </g>
</svg>
