<svg id="Icon_feather-external-link" data-name="Icon feather-external-link" xmlns="http://www.w3.org/2000/svg" width="13.999" height="13.999" viewBox="0 0 13.999 13.999">
  <path id="Path_205" data-name="Path 205" d="M13.278,19.915H5.637A2.14,2.14,0,0,1,3.5,17.778V10.137A2.14,2.14,0,0,1,5.637,8H9.8V9.5H5.637A.642.642,0,0,0,5,10.137v7.641a.642.642,0,0,0,.641.641h7.641a.642.642,0,0,0,.641-.641V13.61h1.5v4.168A2.14,2.14,0,0,1,13.278,19.915Z" transform="translate(-3.5 -5.916)" fill="#845b35"/>
  <path id="Path_206" data-name="Path 206" d="M27.416,8.416h-1.5V5H22.5V3.5h4.916Z" transform="translate(-13.417 -3.5)" fill="#845b35"/>
  <path id="Path_207" data-name="Path 207" d="M15.351,12.491l-1.058-1.058,7.641-7.641,1.058,1.058Z" transform="translate(-9.212 -3.574)" fill="#845b35"/>
</svg>
