<svg xmlns="http://www.w3.org/2000/svg" xmlns:xlink="http://www.w3.org/1999/xlink" width="85.396" height="87.364" viewBox="0 0 85.396 87.364">
  <defs>
    <clipPath id="clip-path">
      <rect id="長方形_809" data-name="長方形 809" width="85.396" height="87.364" fill="#fff"/>
    </clipPath>
  </defs>
  <g id="グループ_3713" data-name="グループ 3713" transform="translate(0 0)">
    <g id="グループ_3713-2" data-name="グループ 3713" transform="translate(0 0)" clip-path="url(#clip-path)">
      <path id="パス_688" data-name="パス 688" d="M1.861,10.969c0-8.337.046-5.335.024-9.814,0-.9.067-1.155.253-1.155s.577.508.808.739c.346.392,3.787,4.111,7.344,7.921,2.286,2.448,4.8,5.265,5.542,6.028L15.579,2.956c-.022-1.5-.185-2.009-.9-2.194a4.811,4.811,0,0,0-.993-.116c-.255,0-.323-.069-.323-.161,0-.139.184-.161.461-.161,1.04,0,2.149.069,2.4.069S17.241.323,18.189.323c.253,0,.415.022.415.161,0,.092-.091.139-.253.161-.184.024-.323.047-.6.094-.648.137-.809.485-.809,2.078L16.895,16.3c0,1.525-.046,1.64-.207,1.64-.185,0-.462-.253-1.687-1.477-.253-.231-3.579-3.626-6.028-6.259C6.3,7.32,3.686,4.411,2.947,3.579l.3,11.063c.046,1.893.277,2.494.9,2.679a5.021,5.021,0,0,0,1.154.139c.116,0,.185.046.185.139,0,.139-.139.185-.416.185-1.315,0-2.24-.07-2.448-.07s-1.178.07-2.217.07c-.232,0-.37-.024-.37-.185,0-.092.069-.139.185-.139a3.286,3.286,0,0,0,.947-.139c.577-.161.693-.832.693-2.933Z" transform="translate(0.009 0)" fill="#fff"/>
      <path id="パス_689" data-name="パス 689" d="M25.238,11.085c0,2.217,0,4.041.116,5.011.069.669.207,1.178.9,1.27a10.05,10.05,0,0,0,1.039.092c.139,0,.185.07.185.139,0,.116-.115.185-.37.185-1.27,0-2.725-.069-2.84-.069s-1.571.069-2.264.069c-.253,0-.37-.046-.37-.185,0-.069.046-.139.186-.139a3.567,3.567,0,0,0,.692-.092c.462-.092.577-.6.669-1.27.116-.97.116-2.795.116-5.011V1.316c-1.131.024-2.286.024-3.418.046-1.432.022-1.987.185-2.356.739a4.046,4.046,0,0,0-.392.716c-.07.185-.139.231-.231.231-.069,0-.116-.069-.116-.209,0-.23.463-2.217.509-2.4.046-.14.137-.44.23-.44a4.334,4.334,0,0,0,1.016.277c.671.069,1.547.115,1.826.115h8.659A9.316,9.316,0,0,0,30.666.277c.346-.046.553-.116.646-.116.116,0,.116.139.116.278,0,.692-.07,2.285-.07,2.54,0,.207-.069.3-.162.3-.114,0-.16-.07-.184-.392,0-.092-.024-.162-.024-.255-.069-.693-.624-1.224-2.841-1.27-.969-.022-1.939-.022-2.91-.046Z" transform="translate(4.175 0)" fill="#fff"/>
      <path id="パス_690" data-name="パス 690" d="M34.169,10.189c0,3.325.739,4.758,1.733,5.7a4.516,4.516,0,0,0,3.486,1.27A4.849,4.849,0,0,0,43.014,15.5c1.064-1.316,1.34-3.28,1.34-5.658V6.956c0-3.6,0-4.249-.046-4.987-.046-.785-.23-1.155-.993-1.317A4.326,4.326,0,0,0,42.53.582c-.092,0-.185-.046-.185-.139,0-.139.116-.185.37-.185,1.039,0,2.309.07,2.449.07.161,0,1.246-.07,1.938-.07.256,0,.37.046.37.185,0,.092-.091.139-.184.139a3.433,3.433,0,0,0-.578.069c-.623.139-.807.508-.854,1.317-.046.738-.046,1.385-.046,4.987V9.427c0,2.494-.276,5.265-2.124,6.9a6.765,6.765,0,0,1-4.758,1.71,7.1,7.1,0,0,1-4.758-1.64c-1.131-1.085-2.008-2.7-2.008-6.074V6.956c0-3.6,0-4.249-.047-4.987-.046-.785-.23-1.155-.991-1.317a4.336,4.336,0,0,0-.785-.069c-.094,0-.186-.046-.186-.139,0-.139.116-.185.37-.185,1.039,0,2.449.07,2.656.07s1.593-.07,2.286-.07c.254,0,.37.046.37.185,0,.092-.092.139-.185.139a3.407,3.407,0,0,0-.577.069c-.623.094-.809.508-.855,1.317-.046.738-.046,1.385-.046,4.987Z" transform="translate(7.5 0.065)" fill="#fff"/>
      <path id="パス_691" data-name="パス 691" d="M0,36.762a8.939,8.939,0,0,1,9.1-9.03c5.2,0,9.076,3.279,9.076,8.66,0,5.174-3.649,9.445-9.214,9.445-6.327,0-8.96-4.92-8.96-9.076m15.958.277c0-5.542-3.372-8.521-7.02-8.521-3.857,0-6.743,2.54-6.743,7.6,0,5.381,3.232,8.845,7.39,8.845,2.078,0,6.374-1.2,6.374-7.921" transform="translate(0 6.898)" fill="#fff"/>
      <path id="パス_692" data-name="パス 692" d="M19.146,34.688c0-3.6,0-4.249-.046-4.989-.046-.787-.231-1.154-.993-1.316a4.317,4.317,0,0,0-.785-.069c-.092,0-.184-.046-.184-.139,0-.139.114-.185.37-.185,1.039,0,2.424.069,2.609.069.508,0,1.848-.069,2.91-.069,2.887,0,3.926.97,4.3,1.316a4.2,4.2,0,0,1,1.155,3.024c0,3-2.4,5.218-5.682,5.218a3.314,3.314,0,0,1-.485-.024c-.116,0-.255-.045-.255-.16,0-.185.139-.207.624-.207a3.807,3.807,0,0,0,3.995-3.95,4.762,4.762,0,0,0-1.294-3.372,4.012,4.012,0,0,0-3.163-1.155,2.833,2.833,0,0,0-.993.14c-.139.045-.185.207-.185.437v9.493c0,2.217,0,4.041.115,5.011.07.669.207,1.178.9,1.27.323.045.832.092,1.039.092.139,0,.186.07.186.139,0,.116-.116.185-.37.185-1.271,0-2.726-.069-2.841-.069-.069,0-1.523.069-2.217.069-.255,0-.37-.046-.37-.185,0-.069.046-.139.184-.139a3.653,3.653,0,0,0,.693-.092c.462-.092.578-.6.669-1.27.116-.97.116-2.795.116-5.011Z" transform="translate(4.263 6.963)" fill="#fff"/>
      <path id="パス_693" data-name="パス 693" d="M30.627,34.725c0-3.6,0-4.249-.046-4.989-.046-.787-.231-1.154-.993-1.316a5.345,5.345,0,0,0-.669-.069c-.162-.025-.3-.046-.3-.139,0-.139.114-.185.37-.185.529,0,1.153,0,2.609.069.161,0,4.758,0,5.288-.022a3.931,3.931,0,0,0,1.061-.139.569.569,0,0,1,.255-.094c.069,0,.092.094.092.207a10.24,10.24,0,0,0-.185,1.086c-.022.347-.046.785-.092,1.385-.024.232-.092.392-.184.392-.14,0-.186-.115-.186-.3a2.285,2.285,0,0,0-.116-.763c-.161-.531-.646-.763-1.662-.853-.392-.049-2.91-.07-3.163-.07-.092,0-.139.07-.139.23v6.374c0,.164.022.232.139.232.3,0,3.141,0,3.671-.047.623-.046.924-.115,1.154-.392.116-.139.186-.23.278-.23.07,0,.115.046.115.185s-.115.529-.185,1.292c-.069.717-.069,1.247-.092,1.57-.022.232-.07.347-.161.347-.139,0-.162-.185-.162-.368a2.063,2.063,0,0,0-.092-.647c-.091-.347-.37-.669-1.2-.763-.624-.069-2.911-.115-3.3-.115a.145.145,0,0,0-.161.16V38.79c0,.784-.024,3.463,0,3.949.046.945.184,1.456.762,1.686a5.6,5.6,0,0,0,1.917.209,7.65,7.65,0,0,0,2.078-.209c.739-.23.993-.716,1.179-1.708.046-.255.092-.347.207-.347.139,0,.139.186.139.347,0,.185-.185,1.754-.3,2.239-.162.6-.347.6-1.247.6-1.708,0-2.471-.045-3.372-.069-.924-.022-1.986-.069-2.887-.069-.553,0-1.109.092-1.708.069-.255,0-.37-.046-.37-.185,0-.069.115-.117.253-.139a3.191,3.191,0,0,0,.532-.069c.485-.116.784-.44.83-2.172.022-.9.046-2.078.046-4.133Z" transform="translate(7.119 6.926)" fill="#fff"/>
      <path id="パス_694" data-name="パス 694" d="M41.257,38.7c0-8.337.046-5.335.024-9.814,0-.9.067-1.155.253-1.155s.577.508.808.739c.346.392,3.787,4.111,7.344,7.921,2.286,2.448,4.8,5.265,5.542,6.028l-.253-11.732c-.022-1.5-.185-2.009-.9-2.194a4.812,4.812,0,0,0-.993-.116c-.255,0-.323-.069-.323-.161,0-.139.184-.161.461-.161,1.04,0,2.149.069,2.4.069s1.015-.069,1.963-.069c.253,0,.415.022.415.161,0,.092-.091.139-.253.161-.184.024-.323.047-.6.094-.648.137-.809.485-.809,2.078l-.046,13.486c0,1.525-.046,1.64-.207,1.64-.185,0-.462-.253-1.687-1.477-.253-.231-3.579-3.626-6.028-6.259-2.677-2.887-5.287-5.8-6.026-6.628l.3,11.063c.046,1.893.277,2.494.9,2.679a5.021,5.021,0,0,0,1.154.139c.116,0,.185.046.185.139,0,.139-.139.185-.416.185-1.315,0-2.24-.07-2.448-.07s-1.178.07-2.217.07c-.232,0-.37-.024-.37-.185,0-.092.069-.139.185-.139a3.286,3.286,0,0,0,.947-.139c.577-.161.693-.832.693-2.933Z" transform="translate(9.809 6.898)" fill="#fff"/>
      <path id="パス_695" data-name="パス 695" d="M14.379,63.042c.069,0,.137-.022.137-.139v-.485c0-3.6,0-4.249-.046-4.989-.046-.785-.23-1.154-.993-1.316a4.315,4.315,0,0,0-.785-.07c-.092,0-.184-.045-.184-.137,0-.139.115-.185.37-.185,1.039,0,2.494.069,2.61.069s1.57-.069,2.261-.069c.255,0,.37.046.37.185,0,.092-.091.137-.184.137a3.447,3.447,0,0,0-.578.07c-.623.115-.808.508-.854,1.316-.046.739-.046,1.386-.046,4.989v4.065c0,2.217,0,4.041.116,5.011.069.669.207,1.178.9,1.27a10.053,10.053,0,0,0,1.039.092c.139,0,.185.07.185.139,0,.115-.116.185-.37.185-1.27,0-2.726-.07-2.84-.07s-1.571.07-2.264.07c-.255,0-.37-.046-.37-.185,0-.069.046-.139.185-.139a3.542,3.542,0,0,0,.692-.092c.463-.092.578-.6.671-1.27.115-.97.115-2.795.115-5.011V64.059a.133.133,0,0,0-.137-.139H4.586a.122.122,0,0,0-.139.139v2.425c0,2.217,0,4.041.116,5.011.069.669.209,1.178.9,1.27a10.053,10.053,0,0,0,1.039.092c.139,0,.185.07.185.139,0,.115-.115.185-.37.185-1.27,0-2.725-.07-2.84-.07s-1.571.07-2.264.07c-.253,0-.37-.046-.37-.185,0-.069.046-.139.186-.139a3.567,3.567,0,0,0,.692-.092c.462-.092.577-.6.669-1.27.116-.97.116-2.795.116-5.011V62.419c0-3.6,0-4.249-.046-4.989-.046-.785-.232-1.154-.994-1.316a4.3,4.3,0,0,0-.784-.07C.591,56.044.5,56,.5,55.907c0-.139.116-.185.37-.185,1.039,0,2.494.069,2.61.069s1.57-.069,2.263-.069c.253,0,.37.046.37.185,0,.092-.092.137-.186.137a3.438,3.438,0,0,0-.576.07c-.623.115-.809.508-.855,1.316-.046.739-.046,1.386-.046,4.989V62.9a.122.122,0,0,0,.139.139Z" transform="translate(0.124 13.86)" fill="#fff"/>
      <path id="パス_696" data-name="パス 696" d="M17.433,64.493a8.94,8.94,0,0,1,9.1-9.03c5.2,0,9.075,3.279,9.075,8.66,0,5.174-3.648,9.445-9.214,9.445-6.327,0-8.96-4.92-8.96-9.076m15.958.277c0-5.542-3.372-8.521-7.02-8.521-3.856,0-6.743,2.54-6.743,7.6,0,5.381,3.233,8.845,7.39,8.845,2.079,0,6.374-1.2,6.374-7.921" transform="translate(4.336 13.796)" fill="#fff"/>
      <path id="パス_697" data-name="パス 697" d="M37.959,65.652c0,3.325.739,4.758,1.732,5.7a4.517,4.517,0,0,0,3.488,1.27A4.851,4.851,0,0,0,46.8,70.964c1.063-1.316,1.339-3.28,1.339-5.658V62.419c0-3.6,0-4.249-.046-4.987-.045-.785-.23-1.155-.993-1.317a4.306,4.306,0,0,0-.785-.069c-.092,0-.184-.046-.184-.139,0-.139.115-.185.37-.185,1.039,0,2.308.07,2.448.07.162,0,1.247-.07,1.939-.07.255,0,.37.046.37.185,0,.092-.092.139-.185.139a3.421,3.421,0,0,0-.577.069c-.623.139-.808.508-.855,1.317-.046.738-.046,1.385-.046,4.987V64.89c0,2.494-.276,5.265-2.124,6.9a6.762,6.762,0,0,1-4.756,1.71,7.092,7.092,0,0,1-4.758-1.64c-1.131-1.085-2.009-2.7-2.009-6.074V62.419c0-3.6,0-4.249-.046-4.987-.046-.785-.231-1.155-.993-1.317a4.316,4.316,0,0,0-.785-.069c-.094,0-.185-.046-.185-.139,0-.139.115-.185.37-.185,1.039,0,2.448.07,2.656.07s1.592-.07,2.285-.07c.255,0,.37.046.37.185,0,.092-.091.139-.184.139a3.419,3.419,0,0,0-.578.069c-.623.094-.808.508-.854,1.317-.046.738-.046,1.385-.046,4.987Z" transform="translate(8.442 13.86)" fill="#fff"/>
      <path id="パス_698" data-name="パス 698" d="M50.465,72.944c-.323-.161-.347-.253-.347-.878,0-1.154.092-2.078.114-2.448.025-.253.07-.37.187-.37.137,0,.16.07.16.255a4.1,4.1,0,0,0,.069.854c.347,1.708,1.873,2.355,3.419,2.355a3.082,3.082,0,0,0,3.3-3.072c0-1.592-.668-2.516-2.655-4.156l-1.04-.855c-2.446-2.009-3-3.44-3-5.011,0-2.47,1.848-4.157,4.779-4.157a8.893,8.893,0,0,1,2.149.232,3.841,3.841,0,0,0,.808.115c.186,0,.232.046.232.161s-.094.878-.094,2.449c0,.37-.045.531-.162.531-.139,0-.16-.115-.185-.3a4.082,4.082,0,0,0-.3-1.155c-.139-.255-.762-1.224-2.887-1.224a2.626,2.626,0,0,0-2.841,2.679c0,1.316.6,2.148,2.817,3.88l.648.508c2.724,2.148,3.37,3.579,3.37,5.427A4.785,4.785,0,0,1,57.047,72.6a6.085,6.085,0,0,1-3.488.97,7,7,0,0,1-3.094-.624" transform="translate(12.466 13.796)" fill="#fff"/>
      <path id="パス_699" data-name="パス 699" d="M62.2,62.456c0-3.6,0-4.249-.046-4.989-.046-.785-.231-1.154-.993-1.316a5.349,5.349,0,0,0-.669-.069c-.162-.024-.3-.046-.3-.139,0-.139.114-.185.37-.185.529,0,1.153,0,2.609.069.161,0,4.758,0,5.288-.022a3.879,3.879,0,0,0,1.061-.139.562.562,0,0,1,.255-.092c.069,0,.092.092.092.207a10.124,10.124,0,0,0-.185,1.085c-.022.347-.046.785-.092,1.386-.024.231-.092.392-.184.392-.14,0-.186-.115-.186-.3a2.283,2.283,0,0,0-.116-.762c-.161-.532-.646-.763-1.662-.854-.392-.047-2.91-.07-3.163-.07-.092,0-.139.07-.139.231v6.374c0,.162.022.231.139.231.3,0,3.141,0,3.671-.046.623-.046.924-.115,1.154-.392.116-.139.186-.231.278-.231.07,0,.115.046.115.185s-.115.531-.185,1.292c-.069.717-.069,1.247-.092,1.571-.022.231-.07.347-.161.347-.139,0-.162-.186-.162-.37a2.064,2.064,0,0,0-.092-.647c-.091-.347-.37-.669-1.2-.763-.624-.069-2.911-.115-3.3-.115a.145.145,0,0,0-.161.161V66.52c0,.785-.024,3.464,0,3.949.046.947.184,1.456.762,1.686a5.6,5.6,0,0,0,1.917.209,7.649,7.649,0,0,0,2.078-.209c.739-.23.993-.716,1.179-1.708.046-.255.092-.347.207-.347.139,0,.139.186.139.347,0,.185-.185,1.754-.3,2.239-.162.6-.347.6-1.248.6-1.708,0-2.471-.045-3.372-.069-.924-.022-1.986-.069-2.887-.069-.553,0-1.109.092-1.708.069-.255,0-.37-.046-.37-.185,0-.069.115-.116.253-.139a2.949,2.949,0,0,0,.532-.069c.485-.116.784-.44.83-2.172.022-.9.046-2.078.046-4.133Z" transform="translate(14.973 13.824)" fill="#fff"/>
    </g>
  </g>
</svg>
